<?xml version="1.0" encoding="utf-8"?>
<!-- Generator: Adobe Illustrator 26.0.2, SVG Export Plug-In . SVG Version: 6.00 Build 0)  -->
<svg version="1.1" id="Layer_1" xmlns="http://www.w3.org/2000/svg" xmlns:xlink="http://www.w3.org/1999/xlink" x="0px" y="0px"
	 viewBox="0 0 120 26" style="enable-background:new 0 0 120 26;" xml:space="preserve">
<style type="text/css">
	.st0{fill:url(#SVGID_1_);}
	.st1{fill:url(#SVGID_00000038411315364403835970000011244969001083650177_);}
	.st2{fill:url(#SVGID_00000044139412977377250650000010000668858386983871_);}
	.st3{fill:url(#SVGID_00000163041346734605928880000003647908383157108130_);}
	.st4{fill:url(#SVGID_00000143617797414968956670000005852521588252258490_);}
	.st5{fill:url(#SVGID_00000029046612387611518310000002485358041181460630_);}
	.st6{fill:url(#SVGID_00000004508631566061199720000008164496643041789350_);}
	.st7{fill:url(#SVGID_00000156545782396452558690000017447658313872528309_);}
	.st8{fill:url(#SVGID_00000040552588196183090060000010935171686655582094_);}
	.st9{fill:url(#SVGID_00000087402786239471609450000006837171172183448254_);}
	.st10{fill:url(#SVGID_00000046339319280984471140000007286557559581445284_);}
	.st11{fill:url(#SVGID_00000134966516798139114570000001528838856566991024_);}
	.st12{fill:url(#SVGID_00000023990311546299433140000007435560299683502233_);}
	.st13{fill:#FFFFFF;}
	.st14{fill:url(#SVGID_00000050640516288172702150000001266593609759818899_);}
	.st15{fill:url(#SVGID_00000016780051906123834940000014548630268391712175_);}
	.st16{fill:url(#SVGID_00000068669681909281460060000012576768417421310106_);}
	.st17{fill:url(#SVGID_00000146487580655974868210000007774893927926043577_);}
	.st18{fill:url(#SVGID_00000032649999317302196910000002558130657555534723_);}
	.st19{fill:url(#SVGID_00000015324069676493709820000012691279279145390742_);}
	.st20{fill:url(#SVGID_00000170240133258526515260000002608417271345407646_);}
	.st21{fill:url(#SVGID_00000096036583204489819640000011438100382270112385_);}
	.st22{fill:url(#SVGID_00000145768233076801713730000012741045670247471285_);}
	.st23{fill:url(#SVGID_00000132068307702683231890000005348847287182286470_);}
	.st24{fill:url(#SVGID_00000020376256299162594490000007645702988174948760_);}
	.st25{fill:url(#SVGID_00000095317219519911496420000016074027225053161873_);}
	.st26{fill:url(#SVGID_00000173145302678353382700000002094514773535321224_);}
	.st27{fill:url(#SVGID_00000090277163786716492870000000950545912079651224_);}
</style>
<g>
	<g>
		<linearGradient id="SVGID_1_" gradientUnits="userSpaceOnUse" x1="4.534" y1="9.7932" x2="77.2099" y2="9.7932">
			<stop  offset="0" style="stop-color:#CC268F"/>
			<stop  offset="1" style="stop-color:#5851A1"/>
		</linearGradient>
		<path class="st0" d="M6.2,15.6H4.5L8.2,4h1.7L6.2,15.6z"/>
		
			<linearGradient id="SVGID_00000137831000039452729170000000559490967261114802_" gradientUnits="userSpaceOnUse" x1="4.534" y1="10.7747" x2="77.2099" y2="10.7747">
			<stop  offset="0" style="stop-color:#CC268F"/>
			<stop  offset="1" style="stop-color:#5851A1"/>
		</linearGradient>
		<path style="fill:url(#SVGID_00000137831000039452729170000000559490967261114802_);" d="M12.3,12.7c0.4,0,0.7,0,0.9-0.1
			c0.2-0.1,0.3-0.2,0.3-0.4c0-0.1,0-0.2-0.1-0.3c-0.1-0.1-0.2-0.1-0.3-0.2c-0.1-0.1-0.3-0.1-0.4-0.2c-0.2-0.1-0.3-0.1-0.5-0.2
			c-0.2-0.1-0.5-0.2-0.7-0.2c-0.2-0.1-0.5-0.2-0.7-0.4c-0.2-0.1-0.4-0.3-0.5-0.5c-0.1-0.2-0.2-0.5-0.2-0.8c0-0.3,0.1-0.5,0.2-0.8
			c0.1-0.2,0.3-0.4,0.5-0.6c0.2-0.2,0.5-0.3,0.8-0.4c0.3-0.1,0.7-0.2,1.2-0.2c0.4,0,0.8,0,1.1,0.1c0.4,0.1,0.7,0.2,0.9,0.3l-0.3,1.4
			c-0.2,0-0.4-0.1-0.7-0.2c-0.3-0.1-0.7-0.2-1.1-0.2c-0.4,0-0.7,0.1-0.8,0.2c-0.1,0.1-0.2,0.2-0.2,0.3c0,0.1,0,0.2,0.1,0.3
			c0.1,0.1,0.2,0.1,0.3,0.2c0.1,0.1,0.2,0.1,0.4,0.2c0.1,0.1,0.3,0.1,0.5,0.2c0.2,0.1,0.5,0.2,0.7,0.3c0.3,0.1,0.5,0.2,0.7,0.4
			c0.2,0.1,0.4,0.3,0.5,0.6s0.2,0.5,0.2,0.8c0,0.3,0,0.5-0.1,0.7c-0.1,0.2-0.3,0.4-0.5,0.6s-0.5,0.3-0.9,0.4
			c-0.4,0.1-0.8,0.1-1.3,0.1c-0.5,0-1-0.1-1.4-0.2c-0.4-0.1-0.7-0.2-0.9-0.3l0.3-1.4c0.3,0.1,0.6,0.2,1,0.3
			C11.6,12.6,11.9,12.7,12.3,12.7z"/>
		
			<linearGradient id="SVGID_00000175301885699976611780000005064571928197301413_" gradientUnits="userSpaceOnUse" x1="4.534" y1="10.7747" x2="77.2099" y2="10.7747">
			<stop  offset="0" style="stop-color:#CC268F"/>
			<stop  offset="1" style="stop-color:#5851A1"/>
		</linearGradient>
		<path style="fill:url(#SVGID_00000175301885699976611780000005064571928197301413_);" d="M16,10.8c0-0.6,0.1-1,0.3-1.5
			c0.2-0.4,0.4-0.8,0.7-1c0.3-0.3,0.6-0.5,0.9-0.6c0.4-0.1,0.7-0.2,1.1-0.2c0.9,0,1.6,0.3,2.1,0.8c0.5,0.5,0.7,1.3,0.7,2.4
			c0,0.1,0,0.2,0,0.3c0,0.1,0,0.2,0,0.3h-4.1c0,0.4,0.2,0.7,0.5,1c0.3,0.2,0.8,0.4,1.3,0.4c0.3,0,0.6,0,0.9-0.1
			c0.3-0.1,0.5-0.1,0.8-0.2l0.2,1.4c-0.3,0.1-0.6,0.2-0.9,0.2s-0.7,0.1-1.1,0.1c-0.5,0-1-0.1-1.4-0.2c-0.4-0.1-0.8-0.3-1.1-0.6
			c-0.3-0.3-0.5-0.6-0.7-1C16.1,11.8,16,11.4,16,10.8z M20.2,10.2c0-0.2,0-0.3-0.1-0.5c0-0.2-0.1-0.3-0.2-0.4
			C19.8,9.1,19.7,9,19.6,9c-0.2-0.1-0.3-0.1-0.6-0.1c-0.2,0-0.4,0-0.6,0.1c-0.2,0.1-0.3,0.2-0.4,0.3c-0.1,0.1-0.2,0.3-0.2,0.4
			c-0.1,0.2-0.1,0.3-0.1,0.5H20.2z"/>
		
			<linearGradient id="SVGID_00000167358076860138057000000003840037289197567409_" gradientUnits="userSpaceOnUse" x1="4.534" y1="10.7212" x2="77.2099" y2="10.7212">
			<stop  offset="0" style="stop-color:#CC268F"/>
			<stop  offset="1" style="stop-color:#5851A1"/>
		</linearGradient>
		<path style="fill:url(#SVGID_00000167358076860138057000000003840037289197567409_);" d="M27.8,9.3c-0.1,0-0.2-0.1-0.4-0.1
			c-0.1,0-0.3-0.1-0.4-0.1c-0.2,0-0.3,0-0.4,0c-0.1,0-0.3,0-0.4,0c-0.2,0-0.5,0-0.7,0c-0.2,0-0.4,0.1-0.7,0.1v4.7h-1.7V8.1
			c0.4-0.2,0.9-0.3,1.3-0.4c0.5-0.1,1-0.1,1.6-0.1c0.1,0,0.2,0,0.4,0c0.2,0,0.3,0,0.5,0c0.2,0,0.4,0,0.6,0.1c0.2,0,0.4,0.1,0.5,0.1
			L27.8,9.3z"/>
		
			<linearGradient id="SVGID_00000072254268244087329190000010908806415239958193_" gradientUnits="userSpaceOnUse" x1="4.534" y1="10.7814" x2="77.2099" y2="10.7814">
			<stop  offset="0" style="stop-color:#CC268F"/>
			<stop  offset="1" style="stop-color:#5851A1"/>
		</linearGradient>
		<path style="fill:url(#SVGID_00000072254268244087329190000010908806415239958193_);" d="M31.1,13.9c-0.4-0.8-0.8-1.7-1.2-2.8
			c-0.4-1.1-0.8-2.2-1.2-3.5h1.7c0.1,0.3,0.2,0.7,0.3,1.1c0.1,0.4,0.2,0.8,0.4,1.2c0.1,0.4,0.3,0.8,0.4,1.1c0.1,0.4,0.3,0.7,0.4,1
			c0.1-0.3,0.2-0.6,0.4-1c0.1-0.4,0.3-0.7,0.4-1.1c0.1-0.4,0.3-0.8,0.4-1.2c0.1-0.4,0.2-0.7,0.3-1.1H35c-0.4,1.3-0.8,2.4-1.2,3.5
			c-0.5,1.1-0.9,2-1.3,2.8H31.1z"/>
		
			<linearGradient id="SVGID_00000136377962614352892780000014661204802502544537_" gradientUnits="userSpaceOnUse" x1="4.534" y1="10.7747" x2="77.2099" y2="10.7747">
			<stop  offset="0" style="stop-color:#CC268F"/>
			<stop  offset="1" style="stop-color:#5851A1"/>
		</linearGradient>
		<path style="fill:url(#SVGID_00000136377962614352892780000014661204802502544537_);" d="M35.3,10.8c0-0.6,0.1-1,0.3-1.5
			c0.2-0.4,0.4-0.8,0.7-1c0.3-0.3,0.6-0.5,0.9-0.6c0.4-0.1,0.7-0.2,1.1-0.2c0.9,0,1.6,0.3,2.1,0.8c0.5,0.5,0.7,1.3,0.7,2.4
			c0,0.1,0,0.2,0,0.3c0,0.1,0,0.2,0,0.3H37c0,0.4,0.2,0.7,0.5,1c0.3,0.2,0.8,0.4,1.3,0.4c0.3,0,0.6,0,0.9-0.1
			c0.3-0.1,0.5-0.1,0.8-0.2l0.2,1.4c-0.3,0.1-0.6,0.2-0.9,0.2s-0.7,0.1-1.1,0.1c-0.5,0-1-0.1-1.4-0.2c-0.4-0.1-0.8-0.3-1.1-0.6
			c-0.3-0.3-0.5-0.6-0.7-1C35.3,11.8,35.3,11.4,35.3,10.8z M39.5,10.2c0-0.2,0-0.3-0.1-0.5c0-0.2-0.1-0.3-0.2-0.4
			C39.1,9.1,39,9,38.8,9c-0.2-0.1-0.3-0.1-0.6-0.1c-0.2,0-0.4,0-0.6,0.1c-0.2,0.1-0.3,0.2-0.4,0.3c-0.1,0.1-0.2,0.3-0.2,0.4
			C37,9.8,37,10,37,10.2H39.5z"/>
		
			<linearGradient id="SVGID_00000003793385928526793270000007781693339518093978_" gradientUnits="userSpaceOnUse" x1="4.534" y1="10.7212" x2="77.2099" y2="10.7212">
			<stop  offset="0" style="stop-color:#CC268F"/>
			<stop  offset="1" style="stop-color:#5851A1"/>
		</linearGradient>
		<path style="fill:url(#SVGID_00000003793385928526793270000007781693339518093978_);" d="M47,9.3c-0.1,0-0.2-0.1-0.4-0.1
			c-0.1,0-0.3-0.1-0.4-0.1c-0.2,0-0.3,0-0.4,0c-0.1,0-0.3,0-0.4,0c-0.2,0-0.5,0-0.7,0c-0.2,0-0.4,0.1-0.7,0.1v4.7h-1.7V8.1
			c0.4-0.2,0.9-0.3,1.3-0.4c0.5-0.1,1-0.1,1.6-0.1c0.1,0,0.2,0,0.4,0c0.2,0,0.3,0,0.5,0c0.2,0,0.4,0,0.6,0.1c0.2,0,0.4,0.1,0.5,0.1
			L47,9.3z"/>
		
			<linearGradient id="SVGID_00000112624345078371853670000009865256648362567084_" gradientUnits="userSpaceOnUse" x1="4.534" y1="9.399" x2="77.2099" y2="9.399">
			<stop  offset="0" style="stop-color:#CC268F"/>
			<stop  offset="1" style="stop-color:#5851A1"/>
		</linearGradient>
		<path style="fill:url(#SVGID_00000112624345078371853670000009865256648362567084_);" d="M53,13.7c0,0-0.1,0-0.2,0.1
			c-0.1,0-0.2,0.1-0.4,0.1c-0.2,0-0.3,0.1-0.6,0.1c-0.2,0-0.5,0.1-0.7,0.1c-0.8,0-1.3-0.2-1.7-0.7c-0.3-0.4-0.5-1.1-0.5-2V6.1h-1.7
			V4.7h3.4v6.8c0,0.4,0.1,0.7,0.3,0.9c0.2,0.2,0.4,0.2,0.6,0.2c0.3,0,0.6,0,0.8-0.1c0.2-0.1,0.4-0.1,0.4-0.2L53,13.7z"/>
		
			<linearGradient id="SVGID_00000102519805072560697330000002411015295837142190_" gradientUnits="userSpaceOnUse" x1="4.534" y1="10.7747" x2="77.2099" y2="10.7747">
			<stop  offset="0" style="stop-color:#CC268F"/>
			<stop  offset="1" style="stop-color:#5851A1"/>
		</linearGradient>
		<path style="fill:url(#SVGID_00000102519805072560697330000002411015295837142190_);" d="M53.5,10.8c0-0.6,0.1-1,0.3-1.5
			c0.2-0.4,0.4-0.8,0.7-1c0.3-0.3,0.6-0.5,0.9-0.6c0.4-0.1,0.7-0.2,1.1-0.2c0.9,0,1.6,0.3,2.1,0.8c0.5,0.5,0.7,1.3,0.7,2.4
			c0,0.1,0,0.2,0,0.3c0,0.1,0,0.2,0,0.3h-4.1c0,0.4,0.2,0.7,0.5,1c0.3,0.2,0.8,0.4,1.3,0.4c0.3,0,0.6,0,0.9-0.1
			c0.3-0.1,0.5-0.1,0.8-0.2l0.2,1.4c-0.3,0.1-0.6,0.2-0.9,0.2s-0.7,0.1-1.1,0.1c-0.5,0-1-0.1-1.4-0.2c-0.4-0.1-0.8-0.3-1.1-0.6
			c-0.3-0.3-0.5-0.6-0.7-1C53.6,11.8,53.5,11.4,53.5,10.8z M57.7,10.2c0-0.2,0-0.3-0.1-0.5c0-0.2-0.1-0.3-0.2-0.4
			C57.3,9.1,57.2,9,57,9c-0.2-0.1-0.3-0.1-0.6-0.1c-0.2,0-0.4,0-0.6,0.1c-0.2,0.1-0.3,0.2-0.4,0.3c-0.1,0.1-0.2,0.3-0.2,0.4
			c-0.1,0.2-0.1,0.3-0.1,0.5H57.7z"/>
		
			<linearGradient id="SVGID_00000060027661170469404110000013944727640270452369_" gradientUnits="userSpaceOnUse" x1="4.534" y1="10.7747" x2="77.2099" y2="10.7747">
			<stop  offset="0" style="stop-color:#CC268F"/>
			<stop  offset="1" style="stop-color:#5851A1"/>
		</linearGradient>
		<path style="fill:url(#SVGID_00000060027661170469404110000013944727640270452369_);" d="M62.5,12.7c0.4,0,0.7,0,0.9-0.1
			s0.3-0.2,0.3-0.4c0-0.1,0-0.2-0.1-0.3c-0.1-0.1-0.2-0.1-0.3-0.2c-0.1-0.1-0.3-0.1-0.4-0.2c-0.2-0.1-0.3-0.1-0.5-0.2
			c-0.2-0.1-0.5-0.2-0.7-0.2c-0.2-0.1-0.5-0.2-0.7-0.4c-0.2-0.1-0.4-0.3-0.5-0.5c-0.1-0.2-0.2-0.5-0.2-0.8c0-0.3,0.1-0.5,0.2-0.8
			c0.1-0.2,0.3-0.4,0.5-0.6c0.2-0.2,0.5-0.3,0.8-0.4c0.3-0.1,0.7-0.2,1.2-0.2c0.4,0,0.8,0,1.1,0.1c0.4,0.1,0.7,0.2,0.9,0.3l-0.3,1.4
			c-0.2,0-0.4-0.1-0.7-0.2c-0.3-0.1-0.7-0.2-1.1-0.2c-0.4,0-0.7,0.1-0.8,0.2c-0.1,0.1-0.2,0.2-0.2,0.3c0,0.1,0,0.2,0.1,0.3
			c0.1,0.1,0.2,0.1,0.3,0.2c0.1,0.1,0.2,0.1,0.4,0.2c0.1,0.1,0.3,0.1,0.5,0.2c0.2,0.1,0.5,0.2,0.7,0.3c0.3,0.1,0.5,0.2,0.7,0.4
			c0.2,0.1,0.4,0.3,0.5,0.6c0.1,0.2,0.2,0.5,0.2,0.8c0,0.3,0,0.5-0.1,0.7c-0.1,0.2-0.3,0.4-0.5,0.6s-0.5,0.3-0.9,0.4
			s-0.8,0.1-1.3,0.1c-0.5,0-1-0.1-1.4-0.2c-0.4-0.1-0.7-0.2-0.9-0.3l0.3-1.4c0.3,0.1,0.6,0.2,1,0.3C61.7,12.6,62.1,12.7,62.5,12.7z"
			/>
		
			<linearGradient id="SVGID_00000039854633062581310100000003895728691046679480_" gradientUnits="userSpaceOnUse" x1="4.534" y1="10.7747" x2="77.2099" y2="10.7747">
			<stop  offset="0" style="stop-color:#CC268F"/>
			<stop  offset="1" style="stop-color:#5851A1"/>
		</linearGradient>
		<path style="fill:url(#SVGID_00000039854633062581310100000003895728691046679480_);" d="M68.6,12.7c0.4,0,0.7,0,0.9-0.1
			s0.3-0.2,0.3-0.4c0-0.1,0-0.2-0.1-0.3c-0.1-0.1-0.2-0.1-0.3-0.2c-0.1-0.1-0.3-0.1-0.4-0.2c-0.2-0.1-0.3-0.1-0.5-0.2
			c-0.2-0.1-0.5-0.2-0.7-0.2c-0.2-0.1-0.5-0.2-0.7-0.4c-0.2-0.1-0.4-0.3-0.5-0.5c-0.1-0.2-0.2-0.5-0.2-0.8c0-0.3,0.1-0.5,0.2-0.8
			c0.1-0.2,0.3-0.4,0.5-0.6c0.2-0.2,0.5-0.3,0.8-0.4c0.3-0.1,0.7-0.2,1.2-0.2c0.4,0,0.8,0,1.1,0.1c0.4,0.1,0.7,0.2,0.9,0.3l-0.3,1.4
			c-0.2,0-0.4-0.1-0.7-0.2c-0.3-0.1-0.7-0.2-1.1-0.2c-0.4,0-0.7,0.1-0.8,0.2c-0.1,0.1-0.2,0.2-0.2,0.3c0,0.1,0,0.2,0.1,0.3
			c0.1,0.1,0.2,0.1,0.3,0.2c0.1,0.1,0.2,0.1,0.4,0.2c0.1,0.1,0.3,0.1,0.5,0.2c0.2,0.1,0.5,0.2,0.7,0.3c0.3,0.1,0.5,0.2,0.7,0.4
			c0.2,0.1,0.4,0.3,0.5,0.6c0.1,0.2,0.2,0.5,0.2,0.8c0,0.3,0,0.5-0.1,0.7c-0.1,0.2-0.3,0.4-0.5,0.6s-0.5,0.3-0.9,0.4
			c-0.4,0.1-0.8,0.1-1.3,0.1c-0.5,0-1-0.1-1.4-0.2s-0.7-0.2-0.9-0.3l0.3-1.4c0.3,0.1,0.6,0.2,1,0.3C67.9,12.6,68.2,12.7,68.6,12.7z"
			/>
		
			<linearGradient id="SVGID_00000089569814583850212730000007306014253639995298_" gradientUnits="userSpaceOnUse" x1="4.534" y1="9.7932" x2="77.2099" y2="9.7932">
			<stop  offset="0" style="stop-color:#CC268F"/>
			<stop  offset="1" style="stop-color:#5851A1"/>
		</linearGradient>
		<path style="fill:url(#SVGID_00000089569814583850212730000007306014253639995298_);" d="M73.7,15.6H72L75.7,4h1.7L73.7,15.6z"/>
	</g>
	
		<linearGradient id="SVGID_00000119795911274832525110000002339247115353165995_" gradientUnits="userSpaceOnUse" x1="76.6074" y1="9.7628" x2="115.5073" y2="9.7628">
		<stop  offset="0" style="stop-color:#CC268F"/>
		<stop  offset="1" style="stop-color:#5851A1"/>
	</linearGradient>
	<polygon style="fill:url(#SVGID_00000119795911274832525110000002339247115353165995_);" points="112.1,15.7 76.6,15.7 80,3.9 
		115.5,3.9 	"/>
	<g>
		<g>
			<path class="st13" d="M83,6.2h2.9c2.3,0,3.9,1.5,3.9,3.7s-1.6,3.7-3.9,3.7H83V6.2z M85.9,12.2c1.5,0,2.3-1,2.3-2.3
				c0-1.3-0.8-2.3-2.3-2.3h-1.3v4.6H85.9z"/>
			<path class="st13" d="M95.2,12.3h-3.3l-0.5,1.3h-1.7l2.8-7.3h2l2.8,7.3h-1.7L95.2,12.3z M92.4,10.9h2.4l-1.2-3.4L92.4,10.9z"/>
			<path class="st13" d="M99.2,10.5l-2.8-4.3h1.8l1.8,2.9l1.8-2.9h1.8l-2.8,4.3v3h-1.6V10.5z"/>
			<path class="st13" d="M104.3,11.3c0.5,0.5,1.3,1,2.3,1c0.9,0,1.3-0.4,1.3-0.8c0-0.5-0.6-0.7-1.5-0.9c-1.2-0.3-2.7-0.6-2.7-2.2
				c0-1.2,1.1-2.2,2.8-2.2c1.2,0,2.1,0.4,2.9,1l-0.9,1.1c-0.6-0.5-1.4-0.8-2.1-0.8c-0.7,0-1.1,0.3-1.1,0.7c0,0.5,0.6,0.6,1.5,0.8
				c1.2,0.3,2.7,0.6,2.7,2.3c0,1.3-1,2.4-2.9,2.4c-1.4,0-2.4-0.5-3.1-1.2L104.3,11.3z"/>
		</g>
	</g>
	
		<linearGradient id="SVGID_00000081635549990146338470000012569726902442511490_" gradientUnits="userSpaceOnUse" x1="10.5662" y1="15.6553" x2="69.6669" y2="15.6553">
		<stop  offset="0" style="stop-color:#CC268F"/>
		<stop  offset="1" style="stop-color:#5851A1"/>
	</linearGradient>
	<path style="fill:url(#SVGID_00000081635549990146338470000012569726902442511490_);" d="M69.7,16h-2.7c-0.2,0-0.4-0.2-0.4-0.4
		s0.2-0.4,0.4-0.4h2.7c0.2,0,0.4,0.2,0.4,0.4S69.9,16,69.7,16z M64.6,16h-2.7c-0.2,0-0.4-0.2-0.4-0.4s0.2-0.4,0.4-0.4h2.7
		c0.2,0,0.4,0.2,0.4,0.4S64.8,16,64.6,16z M59.5,16h-2.7c-0.2,0-0.4-0.2-0.4-0.4s0.2-0.4,0.4-0.4h2.7c0.2,0,0.4,0.2,0.4,0.4
		S59.7,16,59.5,16z M54.4,16h-2.7c-0.2,0-0.4-0.2-0.4-0.4s0.2-0.4,0.4-0.4h2.7c0.2,0,0.4,0.2,0.4,0.4S54.6,16,54.4,16z M49.3,16
		h-2.7c-0.2,0-0.4-0.2-0.4-0.4s0.2-0.4,0.4-0.4h2.7c0.2,0,0.4,0.2,0.4,0.4S49.5,16,49.3,16z M44.2,16h-2.7c-0.2,0-0.4-0.2-0.4-0.4
		s0.2-0.4,0.4-0.4h2.7c0.2,0,0.4,0.2,0.4,0.4S44.4,16,44.2,16z M39.1,16h-2.7c-0.2,0-0.4-0.2-0.4-0.4s0.2-0.4,0.4-0.4h2.7
		c0.2,0,0.4,0.2,0.4,0.4S39.3,16,39.1,16z M33.9,16h-2.7c-0.2,0-0.4-0.2-0.4-0.4s0.2-0.4,0.4-0.4h2.7c0.2,0,0.4,0.2,0.4,0.4
		S34.2,16,33.9,16z M28.8,16h-2.7c-0.2,0-0.4-0.2-0.4-0.4s0.2-0.4,0.4-0.4h2.7c0.2,0,0.4,0.2,0.4,0.4S29.1,16,28.8,16z M23.7,16H21
		c-0.2,0-0.4-0.2-0.4-0.4s0.2-0.4,0.4-0.4h2.7c0.2,0,0.4,0.2,0.4,0.4S24,16,23.7,16z M18.6,16h-2.7c-0.2,0-0.4-0.2-0.4-0.4
		s0.2-0.4,0.4-0.4h2.7c0.2,0,0.4,0.2,0.4,0.4S18.8,16,18.6,16z M13.5,16h-2.7c-0.2,0-0.4-0.2-0.4-0.4s0.2-0.4,0.4-0.4h2.7
		c0.2,0,0.4,0.2,0.4,0.4S13.7,16,13.5,16z"/>
	<g>
		
			<linearGradient id="SVGID_00000065052685785015080350000014462206313354249357_" gradientUnits="userSpaceOnUse" x1="10.6097" y1="19.9342" x2="69.4742" y2="19.9342">
			<stop  offset="0" style="stop-color:#CC268F"/>
			<stop  offset="1" style="stop-color:#5851A1"/>
		</linearGradient>
		<path style="fill:url(#SVGID_00000065052685785015080350000014462206313354249357_);" d="M14,22.1l-0.3-0.7h-1.9l-0.3,0.7h-1.1
			l1.7-4.4h1.2l1.7,4.4H14z M12.8,18.7l-0.7,1.9h1.4L12.8,18.7z"/>
		
			<linearGradient id="SVGID_00000142158562990591904920000004062434618076552360_" gradientUnits="userSpaceOnUse" x1="10.6097" y1="19.9342" x2="69.4742" y2="19.9342">
			<stop  offset="0" style="stop-color:#CC268F"/>
			<stop  offset="1" style="stop-color:#5851A1"/>
		</linearGradient>
		<path style="fill:url(#SVGID_00000142158562990591904920000004062434618076552360_);" d="M18.5,22.1v-1.8h-2.1v1.8h-0.9v-4.4h0.9
			v1.7h2.1v-1.7h0.9v4.4H18.5z"/>
		
			<linearGradient id="SVGID_00000020359727511285862800000012061291623727394471_" gradientUnits="userSpaceOnUse" x1="10.6097" y1="19.9342" x2="69.4742" y2="19.9342">
			<stop  offset="0" style="stop-color:#CC268F"/>
			<stop  offset="1" style="stop-color:#5851A1"/>
		</linearGradient>
		<path style="fill:url(#SVGID_00000020359727511285862800000012061291623727394471_);" d="M24.1,22.1V19l-1.2,3.1h-0.4L21.2,19v3.1
			h-0.9v-4.4h1.3l1.1,2.7l1.1-2.7H25v4.4H24.1z"/>
		
			<linearGradient id="SVGID_00000058556775374330788740000013102656917539412922_" gradientUnits="userSpaceOnUse" x1="10.6097" y1="19.9342" x2="69.4742" y2="19.9342">
			<stop  offset="0" style="stop-color:#CC268F"/>
			<stop  offset="1" style="stop-color:#5851A1"/>
		</linearGradient>
		<path style="fill:url(#SVGID_00000058556775374330788740000013102656917539412922_);" d="M25.9,22.1v-4.4H29v0.8h-2.2v0.9h2.1v0.8
			h-2.1v1H29v0.8H25.9z"/>
		
			<linearGradient id="SVGID_00000158012004360763058420000015675912600783804830_" gradientUnits="userSpaceOnUse" x1="10.6097" y1="19.9342" x2="69.4742" y2="19.9342">
			<stop  offset="0" style="stop-color:#CC268F"/>
			<stop  offset="1" style="stop-color:#5851A1"/>
		</linearGradient>
		<path style="fill:url(#SVGID_00000158012004360763058420000015675912600783804830_);" d="M29.8,22.1v-4.4h1.7
			c1.4,0,2.3,0.9,2.3,2.2c0,1.3-0.9,2.2-2.3,2.2H29.8z M32.9,19.9c0-0.8-0.5-1.4-1.4-1.4h-0.8v2.7h0.8
			C32.4,21.3,32.9,20.7,32.9,19.9z"/>
		
			<linearGradient id="SVGID_00000102521360959514463380000002465049521191809421_" gradientUnits="userSpaceOnUse" x1="10.6097" y1="19.9342" x2="69.4742" y2="19.9342">
			<stop  offset="0" style="stop-color:#CC268F"/>
			<stop  offset="1" style="stop-color:#5851A1"/>
		</linearGradient>
		<path style="fill:url(#SVGID_00000102521360959514463380000002465049521191809421_);" d="M37.3,22.1L37,21.4h-1.9l-0.3,0.7h-1.1
			l1.7-4.4h1.2l1.7,4.4H37.3z M36.1,18.7l-0.7,1.9h1.4L36.1,18.7z"/>
		
			<linearGradient id="SVGID_00000124875308665796049270000016495344793355135378_" gradientUnits="userSpaceOnUse" x1="10.6097" y1="19.9342" x2="69.4742" y2="19.9342">
			<stop  offset="0" style="stop-color:#CC268F"/>
			<stop  offset="1" style="stop-color:#5851A1"/>
		</linearGradient>
		<path style="fill:url(#SVGID_00000124875308665796049270000016495344793355135378_);" d="M38.7,22.1v-4.4H41
			c0.8,0,1.3,0.5,1.3,1.1c0,0.5-0.3,0.9-0.8,1c0.5,0.1,0.8,0.5,0.8,1.1c0,0.7-0.4,1.2-1.3,1.2H38.7z M41.3,19c0-0.3-0.2-0.5-0.5-0.5
			h-1.2v0.9h1.2C41.1,19.5,41.3,19.3,41.3,19z M41.4,20.8c0-0.3-0.2-0.5-0.6-0.5h-1.2v1h1.2C41.2,21.3,41.4,21.1,41.4,20.8z"/>
		
			<linearGradient id="SVGID_00000147210454565726348370000013687504225083543704_" gradientUnits="userSpaceOnUse" x1="10.6097" y1="19.9342" x2="69.4742" y2="19.9342">
			<stop  offset="0" style="stop-color:#CC268F"/>
			<stop  offset="1" style="stop-color:#5851A1"/>
		</linearGradient>
		<path style="fill:url(#SVGID_00000147210454565726348370000013687504225083543704_);" d="M46,22.1l-0.3-0.7h-1.9l-0.3,0.7h-1.1
			l1.7-4.4h1.2l1.7,4.4H46z M44.8,18.7l-0.7,1.9h1.4L44.8,18.7z"/>
		
			<linearGradient id="SVGID_00000044876987096362498210000015410730115457672870_" gradientUnits="userSpaceOnUse" x1="10.6097" y1="19.9342" x2="69.4742" y2="19.9342">
			<stop  offset="0" style="stop-color:#CC268F"/>
			<stop  offset="1" style="stop-color:#5851A1"/>
		</linearGradient>
		<path style="fill:url(#SVGID_00000044876987096362498210000015410730115457672870_);" d="M47.5,22.1v-4.4h1.7
			c1.4,0,2.3,0.9,2.3,2.2c0,1.3-0.9,2.2-2.3,2.2H47.5z M50.6,19.9c0-0.8-0.5-1.4-1.4-1.4h-0.8v2.7h0.8C50,21.3,50.6,20.7,50.6,19.9z
			"/>
	</g>
	<g>
		
			<linearGradient id="SVGID_00000119796775015479088690000005839836370809826481_" gradientUnits="userSpaceOnUse" x1="10.6097" y1="19.8963" x2="69.4742" y2="19.8963">
			<stop  offset="0" style="stop-color:#CC268F"/>
			<stop  offset="1" style="stop-color:#5851A1"/>
		</linearGradient>
		<path style="fill:url(#SVGID_00000119796775015479088690000005839836370809826481_);" d="M55.6,22.1v-0.4c1.5-1.2,2.4-1.9,2.4-2.6
			c0-0.5-0.5-0.8-0.9-0.8c-0.5,0-0.9,0.2-1.2,0.5l-0.3-0.3c0.3-0.4,0.9-0.7,1.5-0.7c0.7,0,1.4,0.4,1.4,1.2c0,0.9-0.9,1.7-2.1,2.6
			h2.1v0.5H55.6z"/>
		
			<linearGradient id="SVGID_00000012435574314734331910000014181659912172122765_" gradientUnits="userSpaceOnUse" x1="10.6097" y1="19.9345" x2="69.4742" y2="19.9345">
			<stop  offset="0" style="stop-color:#CC268F"/>
			<stop  offset="1" style="stop-color:#5851A1"/>
		</linearGradient>
		<path style="fill:url(#SVGID_00000012435574314734331910000014181659912172122765_);" d="M59.2,19.9c0-1,0.5-2.2,1.6-2.2
			c1.2,0,1.6,1.2,1.6,2.2c0,1-0.5,2.2-1.6,2.2C59.7,22.1,59.2,21,59.2,19.9z M61.9,19.9c0-0.8-0.3-1.7-1.1-1.7
			c-0.8,0-1.1,0.9-1.1,1.7c0,0.8,0.3,1.7,1.1,1.7C61.6,21.7,61.9,20.8,61.9,19.9z"/>
		
			<linearGradient id="SVGID_00000021083541202703215120000009398651078752966580_" gradientUnits="userSpaceOnUse" x1="10.6097" y1="19.8963" x2="69.4742" y2="19.8963">
			<stop  offset="0" style="stop-color:#CC268F"/>
			<stop  offset="1" style="stop-color:#5851A1"/>
		</linearGradient>
		<path style="fill:url(#SVGID_00000021083541202703215120000009398651078752966580_);" d="M62.9,22.1v-0.4c1.5-1.2,2.4-1.9,2.4-2.6
			c0-0.5-0.5-0.8-0.9-0.8c-0.5,0-0.9,0.2-1.2,0.5l-0.3-0.3c0.3-0.4,0.9-0.7,1.5-0.7c0.7,0,1.4,0.4,1.4,1.2c0,0.9-0.9,1.7-2.1,2.6
			h2.1v0.5H62.9z"/>
		
			<linearGradient id="SVGID_00000152221916549158814990000002506868671588328872_" gradientUnits="userSpaceOnUse" x1="10.6097" y1="19.9345" x2="69.4742" y2="19.9345">
			<stop  offset="0" style="stop-color:#CC268F"/>
			<stop  offset="1" style="stop-color:#5851A1"/>
		</linearGradient>
		<path style="fill:url(#SVGID_00000152221916549158814990000002506868671588328872_);" d="M66.4,21.4l0.3-0.3
			c0.2,0.3,0.7,0.6,1.2,0.6c0.6,0,1-0.3,1-0.8c0-0.5-0.4-0.8-1.1-0.8c-0.2,0-0.4,0-0.4,0v-0.5c0.1,0,0.3,0,0.4,0c0.5,0,1-0.2,1-0.7
			c0-0.5-0.4-0.7-0.9-0.7c-0.5,0-0.8,0.2-1.1,0.5l-0.3-0.3c0.3-0.4,0.8-0.7,1.5-0.7c0.8,0,1.4,0.4,1.4,1.1c0,0.6-0.5,0.9-0.9,1
			c0.4,0,1,0.4,1,1.1c0,0.7-0.6,1.2-1.5,1.2C67.2,22.1,66.7,21.8,66.4,21.4z"/>
	</g>
</g>
</svg>
